<svg width="1200" height="780" viewBox="0 0 1200 780" xmlns="http://www.w3.org/2000/svg" font-family="'Segoe UI', system-ui, sans-serif">
  <defs>
    <linearGradient id="bg" x1="0" y1="0" x2="0" y2="1">
      <stop offset="0%" stop-color="#07101c"/>
      <stop offset="100%" stop-color="#040a12"/>
    </linearGradient>
    <linearGradient id="surface" x1="0" y1="0" x2="0" y2="1">
      <stop offset="0%" stop-color="#1a2940"/>
      <stop offset="100%" stop-color="#132033"/>
    </linearGradient>
    <linearGradient id="accent-grad" x1="0" y1="0" x2="1" y2="0">
      <stop offset="0%" stop-color="#ff8c42"/>
      <stop offset="100%" stop-color="#f97316"/>
    </linearGradient>
    <filter id="glow"><feGaussianBlur stdDeviation="2.5" result="b"/><feMerge><feMergeNode in="b"/><feMergeNode in="SourceGraphic"/></feMerge></filter>
  </defs>

  <!-- Background -->
  <rect width="1200" height="780" fill="url(#bg)"/>

  <!-- Sidebar -->
  <rect x="0" y="0" width="222" height="780" fill="#0d1626"/>
  <rect x="222" y="0" width="1" height="780" fill="#24344d"/>

  <!-- Logo area -->
  <circle cx="34" cy="36" r="13" fill="none" stroke="#ff8c42" stroke-width="1.5" filter="url(#glow)"/>
  <circle cx="34" cy="36" r="5" fill="#ff8c42"/>
  <text x="55" y="41" fill="#f2f6fb" font-size="13" font-weight="700" letter-spacing="0.3">AllDebrid-Client</text>
  <text x="55" y="54" fill="#ff8c42" font-size="9" font-weight="600" letter-spacing="0.5">v1.5.2</text>

  <!-- Nav group: Queue -->
  <text x="16" y="84" fill="#7f91ab" font-size="9" font-weight="700" letter-spacing="1.2">QUEUE</text>
  <!-- Dashboard active -->
  <rect x="6" y="90" width="210" height="34" rx="7" fill="#ff8c42" opacity="0.14"/>
  <rect x="6" y="90" width="3" height="34" rx="1.5" fill="#ff8c42"/>
  <text x="26" y="112" fill="#ff8c42" font-size="12.5" font-weight="600">⚡ Dashboard</text>
  <!-- Torrents -->
  <text x="26" y="144" fill="#7f91ab" font-size="12.5">🧲 Torrents</text>
  <!-- Search -->
  <text x="26" y="174" fill="#7f91ab" font-size="12.5">🔍 Search</text>
  <!-- Downloads -->
  <text x="26" y="204" fill="#7f91ab" font-size="12.5">⬇️ Downloads</text>

  <!-- Nav group: Monitor -->
  <text x="16" y="232" fill="#7f91ab" font-size="9" font-weight="700" letter-spacing="1.2">MONITOR</text>
  <text x="26" y="252" fill="#7f91ab" font-size="12.5">📋 Event Log</text>
  <text x="26" y="280" fill="#7f91ab" font-size="12.5">📊 Statistics</text>

  <!-- Nav group: Config -->
  <text x="16" y="308" fill="#7f91ab" font-size="9" font-weight="700" letter-spacing="1.2">CONFIG</text>
  <text x="26" y="328" fill="#7f91ab" font-size="12.5">⚙️ Settings</text>
  <text x="26" y="356" fill="#7f91ab" font-size="12.5">❓ Help</text>

  <!-- Sidebar status dots -->
  <rect x="8" y="690" width="206" height="84" rx="8" fill="#132033" opacity="0.7"/>
  <circle cx="22" cy="710" r="4" fill="#38d27d" filter="url(#glow)"/>
  <text x="34" y="714" fill="#b8c4d6" font-size="10.5">AllDebrid · Premium</text>
  <text x="34" y="728" fill="#7f91ab" font-size="9.5">241 days remaining</text>
  <circle cx="22" cy="742" r="4" fill="#38d27d"/>
  <text x="34" y="746" fill="#b8c4d6" font-size="10.5">aria2 · built-in · 1.37.0</text>
  <text x="34" y="760" fill="#63a4ff" font-size="9.5">↓ 24.6 MB/s</text>

  <!-- Top bar -->
  <rect x="222" y="0" width="978" height="58" fill="#0d1626" opacity="0.95"/>
  <rect x="222" y="57" width="978" height="1" fill="#24344d"/>
  <text x="244" y="36" fill="#f2f6fb" font-size="18" font-weight="700">Dashboard</text>
  <!-- Speed badge -->
  <rect x="380" y="19" width="100" height="24" rx="12" fill="#132033" stroke="#24344d" stroke-width="1"/>
  <text x="385" y="35" fill="#38d27d" font-size="10">⬇</text>
  <text x="397" y="35" fill="#b8c4d6" font-size="10">24.6 MB/s</text>
  <!-- Pause btn -->
  <rect x="1060" y="16" width="120" height="28" rx="7" fill="#132033" stroke="#24344d" stroke-width="1"/>
  <text x="1120" y="34" fill="#b8c4d6" font-size="11" text-anchor="middle">⏸ Pause All</text>

  <!-- ── Stat Cards Row 1 ── -->
  <rect x="240" y="76" width="218" height="108" rx="10" fill="url(#surface)" stroke="#24344d" stroke-width="1"/>
  <rect x="240" y="76" width="218" height="3" rx="1.5" fill="#ff8c42"/>
  <text x="256" y="100" fill="#7f91ab" font-size="9.5" font-weight="700" letter-spacing="1">QUEUE HEALTH</text>
  <text x="256" y="146" fill="#f2f6fb" font-size="40" font-weight="800">94%</text>
  <text x="256" y="167" fill="#7f91ab" font-size="10.5">3 active · 0 errors</text>

  <rect x="472" y="76" width="218" height="108" rx="10" fill="url(#surface)" stroke="#24344d" stroke-width="1"/>
  <rect x="472" y="76" width="218" height="3" rx="1.5" fill="#38d27d"/>
  <text x="488" y="100" fill="#7f91ab" font-size="9.5" font-weight="700" letter-spacing="1">LAST 24H</text>
  <text x="488" y="146" fill="#38d27d" font-size="40" font-weight="800">17</text>
  <text x="488" y="167" fill="#7f91ab" font-size="10.5">Completed torrents</text>

  <rect x="704" y="76" width="218" height="108" rx="10" fill="url(#surface)" stroke="#24344d" stroke-width="1"/>
  <rect x="704" y="76" width="218" height="3" rx="1.5" fill="#63a4ff"/>
  <text x="720" y="100" fill="#7f91ab" font-size="9.5" font-weight="700" letter-spacing="1">LAST 7 DAYS</text>
  <text x="720" y="146" fill="#63a4ff" font-size="40" font-weight="800">89</text>
  <text x="720" y="167" fill="#7f91ab" font-size="10.5">Completed torrents</text>

  <rect x="936" y="76" width="218" height="108" rx="10" fill="url(#surface)" stroke="#24344d" stroke-width="1"/>
  <rect x="936" y="76" width="218" height="3" rx="1.5" fill="#b587ff"/>
  <text x="952" y="100" fill="#7f91ab" font-size="9.5" font-weight="700" letter-spacing="1">SUCCESS RATE</text>
  <text x="952" y="146" fill="#b587ff" font-size="40" font-weight="800">97.1%</text>
  <text x="952" y="167" fill="#7f91ab" font-size="10.5">All completed vs errors</text>

  <!-- ── Stat Cards Row 2 ── -->
  <rect x="240" y="200" width="218" height="100" rx="10" fill="url(#surface)" stroke="#24344d" stroke-width="1"/>
  <text x="256" y="224" fill="#7f91ab" font-size="9.5" font-weight="700" letter-spacing="1">AVG DURATION</text>
  <text x="256" y="268" fill="#f5c451" font-size="34" font-weight="800">11m 8s</text>
  <text x="256" y="287" fill="#7f91ab" font-size="10">Per torrent</text>

  <rect x="472" y="200" width="218" height="100" rx="10" fill="url(#surface)" stroke="#24344d" stroke-width="1"/>
  <text x="488" y="224" fill="#7f91ab" font-size="9.5" font-weight="700" letter-spacing="1">AVG SIZE</text>
  <text x="488" y="268" fill="#06b6d4" font-size="34" font-weight="800">6.8 GB</text>
  <text x="488" y="287" fill="#7f91ab" font-size="10">Per completed torrent</text>

  <rect x="704" y="200" width="218" height="100" rx="10" fill="url(#surface)" stroke="#24344d" stroke-width="1"/>
  <text x="720" y="224" fill="#7f91ab" font-size="9.5" font-weight="700" letter-spacing="1">TOTAL DOWNLOADED</text>
  <text x="720" y="268" fill="#f2f6fb" font-size="28" font-weight="800">2.41 TB</text>
  <text x="720" y="287" fill="#7f91ab" font-size="10">All time</text>

  <rect x="936" y="200" width="218" height="100" rx="10" fill="url(#surface)" stroke="#24344d" stroke-width="1"/>
  <text x="952" y="224" fill="#7f91ab" font-size="9.5" font-weight="700" letter-spacing="1">DATABASE</text>
  <text x="952" y="262" fill="#38d27d" font-size="20" font-weight="700">SQLite</text>
  <text x="952" y="283" fill="#7f91ab" font-size="10">Zero-config default</text>

  <!-- ── Status counters ── -->
  <rect x="240" y="316" width="130" height="80" rx="9" fill="url(#surface)" stroke="#ff8c42" stroke-width="1" opacity="0.85"/>
  <text x="254" y="338" fill="#7f91ab" font-size="9">TOTAL</text>
  <text x="254" y="377" fill="#ff8c42" font-size="36" font-weight="800">412</text>

  <rect x="382" y="316" width="130" height="80" rx="9" fill="url(#surface)" stroke="#38d27d" stroke-width="1" opacity="0.85"/>
  <text x="396" y="338" fill="#7f91ab" font-size="9">COMPLETED</text>
  <text x="396" y="377" fill="#38d27d" font-size="36" font-weight="800">392</text>

  <rect x="524" y="316" width="130" height="80" rx="9" fill="url(#surface)" stroke="#63a4ff" stroke-width="1" opacity="0.85"/>
  <text x="538" y="338" fill="#7f91ab" font-size="9">ACTIVE</text>
  <text x="538" y="377" fill="#63a4ff" font-size="36" font-weight="800">3</text>

  <rect x="666" y="316" width="130" height="80" rx="9" fill="url(#surface)" stroke="#f5c451" stroke-width="1" opacity="0.85"/>
  <text x="680" y="338" fill="#7f91ab" font-size="9">PROCESSING</text>
  <text x="680" y="377" fill="#f5c451" font-size="36" font-weight="800">2</text>

  <rect x="808" y="316" width="130" height="80" rx="9" fill="url(#surface)" stroke="#ff6b6b" stroke-width="1" opacity="0.85"/>
  <text x="822" y="338" fill="#7f91ab" font-size="9">ERRORS</text>
  <text x="822" y="377" fill="#ff6b6b" font-size="36" font-weight="800">1</text>

  <rect x="950" y="316" width="204" height="80" rx="9" fill="url(#surface)" stroke="#b587ff" stroke-width="1" opacity="0.85"/>
  <text x="964" y="338" fill="#7f91ab" font-size="9">DOWNLOADED</text>
  <text x="964" y="370" fill="#b587ff" font-size="22" font-weight="700">2.41 TB</text>
  <text x="964" y="387" fill="#7f91ab" font-size="9">0 blocked files</text>

  <!-- ── Add magnet ── -->
  <rect x="240" y="414" width="914" height="44" rx="8" fill="#132033" stroke="#24344d" stroke-width="1"/>
  <text x="260" y="440" fill="#314565" font-size="12.5">🔗 Add magnet link or paste .torrent URL…</text>
  <rect x="1080" y="421" width="60" height="30" rx="6" fill="url(#accent-grad)"/>
  <text x="1110" y="440" fill="white" font-size="11" font-weight="700" text-anchor="middle">Add</text>

  <!-- ── Recent activity ── -->
  <text x="240" y="484" fill="#b8c4d6" font-size="12.5" font-weight="600">Recent Activity</text>

  <!-- Row 1 -->
  <rect x="240" y="492" width="914" height="44" rx="7" fill="#132033" stroke="#24344d" stroke-width="1"/>
  <circle cx="260" cy="514" r="5.5" fill="#38d27d" filter="url(#glow)"/>
  <text x="278" y="518" fill="#f2f6fb" font-size="12.5">[4K] Dune Part Two (2024) Remux.2160p.HDR10</text>
  <text x="884" y="512" fill="#38d27d" font-size="10.5" text-anchor="end">completed</text>
  <text x="1148" y="512" fill="#7f91ab" font-size="10.5" text-anchor="end">47.3 GB</text>

  <!-- Row 2 -->
  <rect x="240" y="540" width="914" height="44" rx="7" fill="#132033" stroke="#24344d" stroke-width="1"/>
  <circle cx="260" cy="562" r="5.5" fill="#63a4ff"/>
  <text x="278" y="566" fill="#f2f6fb" font-size="12.5">Severance S02E08 2160p WEB-DL DDP5.1 H.265</text>
  <text x="884" y="560" fill="#63a4ff" font-size="10.5" text-anchor="end">downloading</text>
  <text x="1148" y="560" fill="#7f91ab" font-size="10.5" text-anchor="end">12.1 GB</text>

  <!-- Row 3 -->
  <rect x="240" y="588" width="914" height="44" rx="7" fill="#132033" stroke="#24344d" stroke-width="1"/>
  <circle cx="260" cy="610" r="5.5" fill="#f5c451"/>
  <text x="278" y="614" fill="#f2f6fb" font-size="12.5">Nosferatu (2024) 1080p BluRay DTS-HD H.264</text>
  <text x="884" y="608" fill="#f5c451" font-size="10.5" text-anchor="end">processing</text>
  <text x="1148" y="608" fill="#7f91ab" font-size="10.5" text-anchor="end">—</text>

  <!-- Row 4 -->
  <rect x="240" y="636" width="914" height="44" rx="7" fill="#132033" stroke="#24344d" stroke-width="1"/>
  <circle cx="260" cy="658" r="5.5" fill="#38d27d"/>
  <text x="278" y="662" fill="#f2f6fb" font-size="12.5">The Brutalist (2024) Remux.2160p.HDR10.TrueHD</text>
  <text x="884" y="656" fill="#38d27d" font-size="10.5" text-anchor="end">completed</text>
  <text x="1148" y="656" fill="#7f91ab" font-size="10.5" text-anchor="end">89.4 GB</text>

  <!-- Row 5 -->
  <rect x="240" y="684" width="914" height="44" rx="7" fill="#132033" stroke="#24344d" stroke-width="1"/>
  <circle cx="260" cy="706" r="5.5" fill="#38d27d"/>
  <text x="278" y="710" fill="#f2f6fb" font-size="12.5">Conclave (2024) 4K UHD BluRay HEVC Atmos</text>
  <text x="884" y="704" fill="#38d27d" font-size="10.5" text-anchor="end">completed</text>
  <text x="1148" y="704" fill="#7f91ab" font-size="10.5" text-anchor="end">28.7 GB</text>

  <!-- Row 6 -->
  <rect x="240" y="732" width="914" height="44" rx="7" fill="#132033" stroke="#24344d" stroke-width="1"/>
  <circle cx="260" cy="754" r="5.5" fill="#ff6b6b"/>
  <text x="278" y="758" fill="#f2f6fb" font-size="12.5">Alien Romulus (2024) 2160p AMZN WEB-DL</text>
  <text x="884" y="752" fill="#ff6b6b" font-size="10.5" text-anchor="end">error</text>
  <text x="1148" y="752" fill="#7f91ab" font-size="10.5" text-anchor="end">—</text>
</svg>
