<svg width="1200" height="750" viewBox="0 0 1200 750" xmlns="http://www.w3.org/2000/svg" font-family="'Segoe UI', system-ui, sans-serif">
  <defs>
    <linearGradient id="bg" x1="0" y1="0" x2="0" y2="1">
      <stop offset="0%" stop-color="#0d1220"/>
      <stop offset="100%" stop-color="#080c14"/>
    </linearGradient>
    <linearGradient id="card" x1="0" y1="0" x2="0" y2="1">
      <stop offset="0%" stop-color="#111827"/>
      <stop offset="100%" stop-color="#0f172a"/>
    </linearGradient>
    <linearGradient id="orange" x1="0" y1="0" x2="1" y2="0">
      <stop offset="0%" stop-color="#f97316"/>
      <stop offset="100%" stop-color="#ea580c"/>
    </linearGradient>
    <filter id="glow">
      <feGaussianBlur stdDeviation="3" result="blur"/>
      <feMerge><feMergeNode in="blur"/><feMergeNode in="SourceGraphic"/></feMerge>
    </filter>
  </defs>

  <!-- Background -->
  <rect width="1200" height="750" fill="url(#bg)"/>

  <!-- Sidebar -->
  <rect x="0" y="0" width="220" height="750" fill="#0a0f1c" rx="0"/>
  <rect x="220" y="0" width="1" height="750" fill="#1e2d45"/>

  <!-- Logo -->
  <circle cx="36" cy="38" r="14" fill="none" stroke="#f97316" stroke-width="2" filter="url(#glow)"/>
  <circle cx="36" cy="38" r="6" fill="#f97316" opacity="0.9"/>
  <text x="57" y="44" fill="#f0f4f8" font-size="15" font-weight="700" letter-spacing="0.5">AllDebrid-Client</text>

  <!-- Nav items -->
  <rect x="8" y="68" width="204" height="36" rx="8" fill="#f97316" opacity="0.15"/>
  <text x="36" y="90" fill="#f97316" font-size="13" font-weight="600">◉ Dashboard</text>
  <text x="36" y="130" fill="#6b7f99" font-size="13">⊟ Torrents</text>
  <text x="36" y="166" fill="#6b7f99" font-size="13">⊟ Events</text>
  <text x="36" y="202" fill="#6b7f99" font-size="13">⚙ Settings</text>

  <!-- Sidebar status -->
  <rect x="8" y="650" width="204" height="90" rx="8" fill="#111827" opacity="0.6"/>
  <circle cx="24" cy="672" r="5" fill="#22c55e" filter="url(#glow)"/>
  <text x="36" y="676" fill="#9ca3af" font-size="11">AllDebrid · john_doe</text>
  <text x="36" y="693" fill="#6b7f99" font-size="10">Premium bis 15.12.2026 (241 Tage)</text>
  <circle cx="24" cy="708" r="5" fill="#22c55e"/>
  <text x="36" y="712" fill="#9ca3af" font-size="11">aria2 · 1.37.0</text>
  <circle cx="24" cy="726" r="5" fill="#3b82f6"/>
  <text x="36" y="730" fill="#9ca3af" font-size="11">PostgreSQL</text>

  <!-- Main header -->
  <text x="248" y="44" fill="#f0f4f8" font-size="20" font-weight="700">Dashboard</text>
  <rect x="1080" y="22" width="100" height="34" rx="8" fill="#1e2d45" stroke="#2d3f5e" stroke-width="1"/>
  <text x="1130" y="43" fill="#9ca3af" font-size="12" text-anchor="middle">⏸ Pause</text>

  <!-- Stat cards row 1 -->
  <!-- Queue Health -->
  <rect x="240" y="70" width="225" height="110" rx="10" fill="url(#card)" stroke="#1e2d45" stroke-width="1"/>
  <rect x="240" y="70" width="225" height="3" rx="2" fill="#f97316"/>
  <text x="256" y="96" fill="#6b7f99" font-size="10" letter-spacing="1" font-weight="600">QUEUE HEALTH</text>
  <text x="256" y="135" fill="#f0f4f8" font-size="38" font-weight="800">87%</text>
  <text x="256" y="162" fill="#6b7f99" font-size="11">3 active / 1 queued</text>

  <!-- Last 24h -->
  <rect x="480" y="70" width="225" height="110" rx="10" fill="url(#card)" stroke="#1e2d45" stroke-width="1"/>
  <rect x="480" y="70" width="225" height="3" rx="2" fill="#22c55e"/>
  <text x="496" y="96" fill="#6b7f99" font-size="10" letter-spacing="1" font-weight="600">LAST 24H</text>
  <text x="496" y="135" fill="#22c55e" font-size="38" font-weight="800">12</text>
  <text x="496" y="162" fill="#6b7f99" font-size="11">Completed torrents</text>

  <!-- Last 7 days -->
  <rect x="720" y="70" width="225" height="110" rx="10" fill="url(#card)" stroke="#1e2d45" stroke-width="1"/>
  <rect x="720" y="70" width="225" height="3" rx="2" fill="#3b82f6"/>
  <text x="736" y="96" fill="#6b7f99" font-size="10" letter-spacing="1" font-weight="600">LAST 7 DAYS</text>
  <text x="736" y="135" fill="#3b82f6" font-size="38" font-weight="800">67</text>
  <text x="736" y="162" fill="#6b7f99" font-size="11">Completed torrents</text>

  <!-- Success Rate -->
  <rect x="960" y="70" width="220" height="110" rx="10" fill="url(#card)" stroke="#1e2d45" stroke-width="1"/>
  <rect x="960" y="70" width="220" height="3" rx="2" fill="#a855f7"/>
  <text x="976" y="96" fill="#6b7f99" font-size="10" letter-spacing="1" font-weight="600">SUCCESS RATE</text>
  <text x="976" y="135" fill="#a855f7" font-size="38" font-weight="800">94.2%</text>
  <text x="976" y="162" fill="#6b7f99" font-size="11">Of all finished</text>

  <!-- Stat cards row 2 -->
  <rect x="240" y="200" width="225" height="110" rx="10" fill="url(#card)" stroke="#1e2d45" stroke-width="1"/>
  <rect x="240" y="200" width="225" height="3" rx="2" fill="#f59e0b"/>
  <text x="256" y="226" fill="#6b7f99" font-size="10" letter-spacing="1" font-weight="600">AVG DURATION</text>
  <text x="256" y="265" fill="#f59e0b" font-size="34" font-weight="800">14m 32s</text>
  <text x="256" y="292" fill="#6b7f99" font-size="11">Per torrent</text>

  <rect x="480" y="200" width="225" height="110" rx="10" fill="url(#card)" stroke="#1e2d45" stroke-width="1"/>
  <rect x="480" y="200" width="225" height="3" rx="2" fill="#06b6d4"/>
  <text x="496" y="226" fill="#6b7f99" font-size="10" letter-spacing="1" font-weight="600">AVG SIZE</text>
  <text x="496" y="265" fill="#06b6d4" font-size="34" font-weight="800">4.2 GB</text>
  <text x="496" y="292" fill="#6b7f99" font-size="11">Per completed torrent</text>

  <rect x="720" y="200" width="225" height="110" rx="10" fill="url(#card)" stroke="#1e2d45" stroke-width="1"/>
  <rect x="720" y="200" width="225" height="3" rx="2" fill="#22c55e"/>
  <text x="736" y="226" fill="#6b7f99" font-size="10" letter-spacing="1" font-weight="600">DATABASE</text>
  <text x="736" y="265" fill="#22c55e" font-size="22" font-weight="700">PostgreSQL</text>
  <text x="736" y="292" fill="#6b7f99" font-size="11">Active backend</text>

  <rect x="960" y="200" width="220" height="110" rx="10" fill="url(#card)" stroke="#1e2d45" stroke-width="1"/>
  <rect x="960" y="200" width="220" height="3" rx="2" fill="#ef4444"/>
  <text x="976" y="226" fill="#6b7f99" font-size="10" letter-spacing="1" font-weight="600">TOTAL DL</text>
  <text x="976" y="265" fill="#f0f4f8" font-size="30" font-weight="800">1.84 TB</text>
  <text x="976" y="292" fill="#6b7f99" font-size="11">All time</text>

  <!-- Status counters -->
  <rect x="240" y="330" width="140" height="90" rx="10" fill="url(#card)" stroke="#f97316" stroke-width="1" opacity="0.8"/>
  <text x="256" y="356" fill="#6b7f99" font-size="10">TOTAL</text>
  <text x="256" y="398" fill="#f97316" font-size="36" font-weight="800">342</text>

  <rect x="392" y="330" width="140" height="90" rx="10" fill="url(#card)" stroke="#22c55e" stroke-width="1" opacity="0.8"/>
  <text x="408" y="356" fill="#6b7f99" font-size="10">COMPLETED</text>
  <text x="408" y="398" fill="#22c55e" font-size="36" font-weight="800">318</text>

  <rect x="544" y="330" width="140" height="90" rx="10" fill="url(#card)" stroke="#3b82f6" stroke-width="1" opacity="0.8"/>
  <text x="560" y="356" fill="#6b7f99" font-size="10">ACTIVE</text>
  <text x="560" y="398" fill="#3b82f6" font-size="36" font-weight="800">3</text>

  <rect x="696" y="330" width="140" height="90" rx="10" fill="url(#card)" stroke="#f59e0b" stroke-width="1" opacity="0.8"/>
  <text x="712" y="356" fill="#6b7f99" font-size="10">PROCESSING</text>
  <text x="712" y="398" fill="#f59e0b" font-size="36" font-weight="800">1</text>

  <rect x="848" y="330" width="140" height="90" rx="10" fill="url(#card)" stroke="#ef4444" stroke-width="1" opacity="0.8"/>
  <text x="864" y="356" fill="#6b7f99" font-size="10">ERRORS</text>
  <text x="864" y="398" fill="#ef4444" font-size="36" font-weight="800">2</text>

  <rect x="1000" y="330" width="180" height="90" rx="10" fill="url(#card)" stroke="#a855f7" stroke-width="1" opacity="0.8"/>
  <text x="1016" y="356" fill="#6b7f99" font-size="10">DOWNLOADED</text>
  <text x="1016" y="390" fill="#a855f7" font-size="22" font-weight="700">1.84 TB</text>
  <text x="1016" y="410" fill="#6b7f99" font-size="10">0 blocked files</text>

  <!-- Add magnet -->
  <rect x="240" y="440" width="940" height="52" rx="10" fill="#111827" stroke="#1e2d45" stroke-width="1"/>
  <text x="264" y="470" fill="#4b5563" font-size="13">🔗 Add magnet link or paste URL…</text>
  <rect x="1110" y="451" width="56" height="30" rx="6" fill="url(#orange)"/>
  <text x="1138" y="470" fill="white" font-size="12" font-weight="600" text-anchor="middle">Add</text>

  <!-- Recent torrents -->
  <text x="240" y="520" fill="#9ca3af" font-size="13" font-weight="600">Recent Activity</text>

  <!-- Torrent rows -->
  <rect x="240" y="530" width="940" height="48" rx="8" fill="#111827" stroke="#1e2d45" stroke-width="1"/>
  <circle cx="262" cy="554" r="6" fill="#22c55e"/>
  <text x="280" y="558" fill="#f0f4f8" font-size="13">[4K] Dune Part Two (2024) Remux</text>
  <text x="900" y="552" fill="#22c55e" font-size="11" text-anchor="end">completed</text>
  <text x="1172" y="552" fill="#6b7f99" font-size="11" text-anchor="end">23.8 GB</text>

  <rect x="240" y="582" width="940" height="48" rx="8" fill="#111827" stroke="#1e2d45" stroke-width="1"/>
  <circle cx="262" cy="606" r="6" fill="#3b82f6"/>
  <text x="280" y="610" fill="#f0f4f8" font-size="13">The Brutalist (2024) 1080p BluRay</text>
  <text x="900" y="604" fill="#3b82f6" font-size="11" text-anchor="end">downloading</text>
  <text x="1172" y="604" fill="#6b7f99" font-size="11" text-anchor="end">8.1 GB</text>

  <rect x="240" y="634" width="940" height="48" rx="8" fill="#111827" stroke="#1e2d45" stroke-width="1"/>
  <circle cx="262" cy="658" r="6" fill="#f59e0b"/>
  <text x="280" y="662" fill="#f0f4f8" font-size="13">Nosferatu (2024) HDR10</text>
  <text x="900" y="656" fill="#f59e0b" font-size="11" text-anchor="end">processing</text>
  <text x="1172" y="656" fill="#6b7f99" font-size="11" text-anchor="end">—</text>

  <rect x="240" y="686" width="940" height="48" rx="8" fill="#111827" stroke="#1e2d45" stroke-width="1"/>
  <circle cx="262" cy="710" r="6" fill="#22c55e"/>
  <text x="280" y="714" fill="#f0f4f8" font-size="13">Severance S02 Complete 2160p</text>
  <text x="900" y="708" fill="#22c55e" font-size="11" text-anchor="end">completed</text>
  <text x="1172" y="708" fill="#6b7f99" font-size="11" text-anchor="end">67.2 GB</text>
</svg>
