<svg xmlns="http://www.w3.org/2000/svg" viewBox="0 0 512 512" width="512" height="512">
  <defs>
    <radialGradient id="bgGrad" cx="50%" cy="50%" r="50%">
      <stop offset="0%" stop-color="#0d1220"/>
      <stop offset="100%" stop-color="#080c14"/>
    </radialGradient>
    <radialGradient id="coreGrad" cx="50%" cy="50%" r="50%">
      <stop offset="0%" stop-color="#fb923c"/>
      <stop offset="100%" stop-color="#c2410c"/>
    </radialGradient>
    <filter id="glow">
      <feGaussianBlur stdDeviation="4" result="blur"/>
      <feMerge><feMergeNode in="blur"/><feMergeNode in="SourceGraphic"/></feMerge>
    </filter>
    <clipPath id="round">
      <rect width="512" height="512" rx="110" ry="110"/>
    </clipPath>
  </defs>

  <rect width="512" height="512" rx="110" fill="url(#bgGrad)"/>

  <circle cx="256" cy="256" r="180" fill="none" stroke="#1e2d45" stroke-width="1.5" opacity="0.8"/>
  <circle cx="256" cy="256" r="130" fill="none" stroke="#1e2d45" stroke-width="1.5" opacity="0.8"/>
  <circle cx="256" cy="256" r="80" fill="none" stroke="#263650" stroke-width="1.5"/>

  <line x1="256" y1="70" x2="256" y2="442" stroke="#1e2d45" stroke-width="1" opacity="0.5"/>
  <line x1="70" y1="256" x2="442" y2="256" stroke="#1e2d45" stroke-width="1" opacity="0.5"/>

  <path d="M256,256 L256,76 A180,180 0 0,1 416,316 Z" fill="#f97316" opacity="0.04"/>
  <line x1="256" y1="256" x2="416" y2="316" stroke="#f97316" stroke-width="1.5" opacity="0.3"/>

  <circle cx="256" cy="76" r="14" fill="#0d1220" stroke="#f97316" stroke-width="2"/>
  <text x="256" y="81" text-anchor="middle" font-family="monospace" font-size="11" fill="#f97316" font-weight="bold">AD</text>

  <circle cx="408" cy="338" r="14" fill="#0d1220" stroke="#3b82f6" stroke-width="2"/>
  <text x="408" y="343" text-anchor="middle" font-family="monospace" font-size="10" fill="#3b82f6" font-weight="bold">JD</text>

  <circle cx="104" cy="338" r="14" fill="#0d1220" stroke="#22c55e" stroke-width="2"/>
  <text x="104" y="343" text-anchor="middle" font-family="monospace" font-size="10" fill="#22c55e" font-weight="bold">a2</text>

  <line x1="256" y1="90" x2="256" y2="210" stroke="#f97316" stroke-width="1" stroke-dasharray="4,4" opacity="0.4"/>
  <line x1="396" y1="330" x2="300" y2="285" stroke="#3b82f6" stroke-width="1" stroke-dasharray="4,4" opacity="0.4"/>
  <line x1="116" y1="330" x2="212" y2="285" stroke="#22c55e" stroke-width="1" stroke-dasharray="4,4" opacity="0.4"/>

  <circle cx="256" cy="256" r="52" fill="#111827" stroke="#f97316" stroke-width="2.5" filter="url(#glow)"/>
  <circle cx="256" cy="256" r="44" fill="url(#coreGrad)" opacity="0.15"/>

  <g filter="url(#glow)" fill="#f97316">
    <rect x="249" y="228" width="14" height="26" rx="3" fill="#f97316"/>
    <polygon points="256,282 236,258 276,258" fill="#f97316"/>
    <rect x="234" y="285" width="44" height="5" rx="2.5" fill="#f97316"/>
  </g>

  <circle cx="76" cy="76" r="3" fill="#1e2d45"/>
  <circle cx="436" cy="76" r="3" fill="#1e2d45"/>
  <circle cx="76" cy="436" r="3" fill="#1e2d45"/>
  <circle cx="436" cy="436" r="3" fill="#1e2d45"/>
</svg>
